<svg width="20" height="20" viewBox="0 0 20 20" fill="none" xmlns="http://www.w3.org/2000/svg">
<path d="M7.80828 18.8526C7.80827 19.4049 8.25599 19.8526 8.80827 19.8526H11.3966C11.9489 19.8526 12.3966 19.4049 12.3966 18.8526V12.3965H18.8527C19.405 12.3965 19.8527 11.9488 19.8527 11.3965V8.80821C19.8527 8.25593 19.405 7.80821 18.8527 7.80821H12.3966V1.35217C12.3966 0.799888 11.9489 0.352173 11.3966 0.352173L8.80828 0.352173C8.25599 0.352173 7.80828 0.79989 7.80827 1.35217V7.80821H1.35229C0.80001 7.80821 0.352295 8.25593 0.352295 8.80821L0.352295 11.3965C0.352295 11.9488 0.800012 12.3965 1.3523 12.3965H7.80827L7.80828 18.8526Z" fill="#E6E6E6"/>
</svg>
