<svg width="88" height="88" viewBox="0 0 88 88" fill="none" xmlns="http://www.w3.org/2000/svg">
<mask id="path-1-outside-1_208_13" maskUnits="userSpaceOnUse" x="0.162598" y="0.156368" width="88" height="88" fill="black">
<rect fill="white" x="0.162598" y="0.156368" width="88" height="88"/>
<path fill-rule="evenodd" clip-rule="evenodd" d="M43.7593 86.3497C67.2848 86.3497 86.356 67.2785 86.356 43.753C86.356 20.2276 67.2848 1.15637 43.7593 1.15637C20.2338 1.15637 1.1626 20.2276 1.1626 43.753C1.1626 67.2785 20.2338 86.3497 43.7593 86.3497ZM43.7592 83.6778C65.809 83.6778 83.684 65.8029 83.684 43.753C83.684 21.7032 65.809 3.82829 43.7592 3.82829C21.7094 3.82829 3.83446 21.7032 3.83446 43.753C3.83446 65.8029 21.7094 83.6778 43.7592 83.6778Z"/>
</mask>
<path fill-rule="evenodd" clip-rule="evenodd" d="M43.7593 86.3497C67.2848 86.3497 86.356 67.2785 86.356 43.753C86.356 20.2276 67.2848 1.15637 43.7593 1.15637C20.2338 1.15637 1.1626 20.2276 1.1626 43.753C1.1626 67.2785 20.2338 86.3497 43.7593 86.3497ZM43.7592 83.6778C65.809 83.6778 83.684 65.8029 83.684 43.753C83.684 21.7032 65.809 3.82829 43.7592 3.82829C21.7094 3.82829 3.83446 21.7032 3.83446 43.753C3.83446 65.8029 21.7094 83.6778 43.7592 83.6778Z" fill="white"/>
<path d="M85.356 43.753C85.356 66.7263 66.7325 85.3497 43.7593 85.3497V87.3497C67.8371 87.3497 87.356 67.8308 87.356 43.753H85.356ZM43.7593 2.15637C66.7325 2.15637 85.356 20.7798 85.356 43.753H87.356C87.356 19.6753 67.8371 0.156368 43.7593 0.156368V2.15637ZM2.1626 43.753C2.1626 20.7798 20.7861 2.15637 43.7593 2.15637V0.156368C19.6815 0.156368 0.162598 19.6753 0.162598 43.753H2.1626ZM43.7593 85.3497C20.7861 85.3497 2.1626 66.7263 2.1626 43.753H0.162598C0.162598 67.8308 19.6815 87.3497 43.7593 87.3497V85.3497ZM82.684 43.753C82.684 65.2506 65.2568 82.6778 43.7592 82.6778V84.6778C66.3613 84.6778 84.684 66.3552 84.684 43.753H82.684ZM43.7592 4.82829C65.2568 4.82829 82.684 22.2555 82.684 43.753H84.684C84.684 21.1509 66.3613 2.82829 43.7592 2.82829V4.82829ZM4.83446 43.753C4.83446 22.2555 22.2617 4.82829 43.7592 4.82829V2.82829C21.1571 2.82829 2.83446 21.1509 2.83446 43.753H4.83446ZM43.7592 82.6778C22.2617 82.6778 4.83446 65.2506 4.83446 43.753H2.83446C2.83446 66.3552 21.1571 84.6778 43.7592 84.6778V82.6778Z" fill="white" mask="url(#path-1-outside-1_208_13)"/>
<g clip-path="url(#clip0_208_13)">
<path d="M45.1343 21.753H42.3843C41.6249 21.753 41.0093 22.3687 41.0093 23.128V64.378C41.0093 65.1374 41.6249 65.753 42.3843 65.753H45.1343C45.8937 65.753 46.5093 65.1374 46.5093 64.378V23.128C46.5093 22.3687 45.8937 21.753 45.1343 21.753Z" fill="white"/>
<path d="M21.7593 42.378V45.128C21.7593 45.8874 22.3749 46.503 23.1343 46.503H64.3843C65.1437 46.503 65.7593 45.8874 65.7593 45.128V42.378C65.7593 41.6187 65.1437 41.003 64.3843 41.003H23.1343C22.3749 41.003 21.7593 41.6187 21.7593 42.378Z" fill="white"/>
</g>
<defs>
<clipPath id="clip0_208_13">
<rect width="44" height="44" fill="white" transform="translate(21.7593 21.753)"/>
</clipPath>
</defs>
</svg>
