<svg width="17" height="17" viewBox="0 0 17 17" fill="none" xmlns="http://www.w3.org/2000/svg">
<path fill-rule="evenodd" clip-rule="evenodd" d="M0 2C0 0.895447 0.895432 0 2 0H15C16.1046 0 17 0.895447 17 2V6C17 7.10455 16.1046 8 15 8H2C0.895432 8 0 7.10455 0 6V2ZM4 4C4 4.55231 3.55228 5 3 5C2.44772 5 2 4.55231 2 4C2 3.44769 2.44772 3 3 3C3.55228 3 4 3.44769 4 4ZM6 3C5.44772 3 5 3.44772 5 4C5 4.55228 5.44772 5 6 5H14C14.5523 5 15 4.55228 15 4C15 3.44772 14.5523 3 14 3H6Z" fill="white"/>
<path fill-rule="evenodd" clip-rule="evenodd" d="M0 11C0 9.89543 0.895431 9 2 9H15C16.1046 9 17 9.89543 17 11V15C17 16.1046 16.1046 17 15 17H2C0.89543 17 0 16.1046 0 15V11ZM4 13C4 13.5523 3.55228 14 3 14C2.44772 14 2 13.5523 2 13C2 12.4477 2.44772 12 3 12C3.55228 12 4 12.4477 4 13ZM6 12C5.44772 12 5 12.4477 5 13C5 13.5523 5.44772 14 6 14H14C14.5523 14 15 13.5523 15 13C15 12.4477 14.5523 12 14 12H6Z" fill="white"/>
</svg>
