<svg width="17" height="17" viewBox="0 0 17 17" fill="none" xmlns="http://www.w3.org/2000/svg">
<path fill-rule="evenodd" clip-rule="evenodd" d="M1.08391 13.4583C0.693385 13.8488 0.693384 14.482 1.08391 14.8725L2.91413 16.7028C3.30466 17.0933 3.93782 17.0933 4.32835 16.7027L8.89345 12.1376L13.4586 16.7028C13.8491 17.0933 14.4823 17.0933 14.8728 16.7028L16.703 14.8726C17.0936 14.482 17.0935 13.8489 16.703 13.4584L12.1379 8.89321L16.703 4.3281C17.0935 3.93758 17.0935 3.30441 16.703 2.91389L14.8728 1.08366C14.4822 0.69314 13.8491 0.693141 13.4586 1.08367L8.89345 5.64877L4.32838 1.08371C3.93786 0.693182 3.30469 0.693182 2.91417 1.08371L1.08394 2.91393C0.693417 3.30446 0.693419 3.93762 1.08394 4.32815L5.64901 8.89321L1.08391 13.4583Z" fill="#E6E6E6"/>
</svg>
