<svg width="11" height="13" viewBox="0 0 11 13" fill="none" xmlns="http://www.w3.org/2000/svg">
<path d="M9.48437 6.50002L4.81771 6.50002M4.81771 6.50002L6.37326 4.92859M4.81771 6.50002L6.37326 8.07145" stroke="white" stroke-width="1.1" stroke-linecap="round" stroke-linejoin="round"/>
<path d="M3.48438 1.5V1.5C2.37981 1.5 1.48438 2.39543 1.48438 3.5V9.5C1.48438 10.6046 2.37981 11.5 3.48438 11.5H7.48438C8.58894 11.5 9.48438 10.6046 9.48438 9.5V7.5M7.48438 1.5V1.5C8.58894 1.5 9.48438 2.39543 9.48438 3.5V5.5" stroke="white" stroke-width="1.2"/>
<path d="M3.48438 2V1C3.48438 0.723858 3.70823 0.5 3.98438 0.5H6.98438C7.26052 0.5 7.48438 0.723858 7.48438 1V2C7.48438 2.27614 7.26052 2.5 6.98438 2.5H3.98438C3.70823 2.5 3.48438 2.27614 3.48438 2Z" stroke="white"/>
</svg>
