<svg width="10" height="10" viewBox="0 0 10 10" fill="none" xmlns="http://www.w3.org/2000/svg">
<path fill-rule="evenodd" clip-rule="evenodd" d="M0.0533108 8.8777L2.68484 2.73748C2.69495 2.71388 2.71376 2.69507 2.73736 2.68496L8.87758 0.0534329C8.96055 0.0178733 9.04445 0.101767 9.00889 0.184739L6.37736 6.32496C6.36725 6.34857 6.34844 6.36737 6.32484 6.37749L0.184617 9.00901C0.101645 9.04457 0.0177513 8.96068 0.0533108 8.8777ZM4.53085 3.61593C5.03633 3.61593 5.4461 4.0257 5.4461 4.53118C5.4461 5.03666 5.03633 5.44644 4.53085 5.44644C4.02537 5.44644 3.61559 5.03666 3.61559 4.53118C3.61559 4.0257 4.02537 3.61593 4.53085 3.61593Z" fill="white"/>
</svg>
