<svg width="10" height="11" viewBox="0 0 10 11" fill="none" xmlns="http://www.w3.org/2000/svg">
<path d="M4.20215 7.60783L4.20215 0.796876C4.20215 0.356666 4.55906 -0.00024423 4.99927 -0.00024421C5.43948 -0.000244191 5.79639 0.356666 5.79639 0.796876L5.79639 7.60783C5.79639 8.04804 5.43948 8.40495 4.99927 8.40495C4.55906 8.40495 4.20215 8.04804 4.20215 7.60783Z" fill="white"/>
<path d="M1.6136 5.01848C1.6136 4.81462 1.69152 4.61036 1.84716 4.45492C2.15843 4.14344 2.66321 4.14344 2.97428 4.45492L4.99997 6.4804L7.02545 4.45492C7.33672 4.14344 7.8415 4.14344 8.15277 4.45492C8.46405 4.766 8.46405 5.27077 8.15277 5.58205L5.56353 8.17129C5.41407 8.32075 5.2114 8.40485 4.99997 8.40485C4.78853 8.40485 4.58586 8.32075 4.4364 8.17129L1.84716 5.58205C1.69132 5.42661 1.6136 5.22235 1.6136 5.01848Z" fill="white"/>
<path d="M1.66211 10.0863H8.38643" stroke="white" stroke-width="1.5" stroke-linecap="round"/>
</svg>
