<svg width="40" height="40" viewBox="0 0 40 40" fill="none" xmlns="http://www.w3.org/2000/svg">
<path fill-rule="evenodd" clip-rule="evenodd" d="M18.125 1.875C18.125 1.37772 18.3225 0.900806 18.6742 0.549175C19.0258 0.197544 19.5027 0 20 0C25.3043 0 30.3914 2.10714 34.1421 5.85786C37.8929 9.60859 40 14.6957 40 20C40 20.4973 39.8025 20.9742 39.4508 21.3258C39.0992 21.6775 38.6223 21.875 38.125 21.875C37.6277 21.875 37.1508 21.6775 36.7992 21.3258C36.4475 20.9742 36.25 20.4973 36.25 20C36.25 15.6902 34.538 11.557 31.4905 8.50951C28.443 5.46205 24.3098 3.75 20 3.75C19.5027 3.75 19.0258 3.55246 18.6742 3.20083C18.3225 2.84919 18.125 2.37228 18.125 1.875Z" fill="white"/>
</svg>
