<svg width="5" height="5" viewBox="0 0 5 5" fill="none" xmlns="http://www.w3.org/2000/svg">
<path fill-rule="evenodd" clip-rule="evenodd" d="M3.88889 1.61108C3.88889 1.33494 3.66503 1.11108 3.38889 1.11108H0.5C0.223858 1.11108 0 1.33494 0 1.61108V4.49997C0 4.77612 0.223858 4.99997 0.5 4.99997H3.38889C3.66503 4.99997 3.88889 4.77612 3.88889 4.49997V1.61108ZM3.33337 2.1667C3.33337 1.89055 3.10951 1.6667 2.83337 1.6667H1.05559C0.779452 1.6667 0.555594 1.89055 0.555594 2.1667V3.94447C0.555594 4.22062 0.779452 4.44447 1.05559 4.44447H2.83337C3.10951 4.44447 3.33337 4.22062 3.33337 3.94447V2.1667Z" fill="white"/>
<path fill-rule="evenodd" clip-rule="evenodd" d="M1.11133 0.5C1.11133 0.223858 1.33519 0 1.61133 0H4.50022C4.77636 0 5.00022 0.223858 5.00022 0.5V3.38889C5.00022 3.66503 4.77636 3.88889 4.50022 3.88889H3.61117C3.45777 3.88889 3.33341 3.76453 3.33341 3.61113C3.33341 3.45773 3.45777 3.33337 3.61117 3.33337H3.94456C4.2207 3.33337 4.44456 3.10951 4.44456 2.83337V1.05559C4.44456 0.779452 4.2207 0.555594 3.94456 0.555594H2.16678C1.89064 0.555594 1.66678 0.779452 1.66678 1.05559V1.38897C1.66678 1.54235 1.54244 1.6667 1.38906 1.6667C1.23567 1.6667 1.11133 1.54235 1.11133 1.38897V0.5Z" fill="white"/>
</svg>
