<svg width="9" height="11" viewBox="0 0 9 11" fill="none" xmlns="http://www.w3.org/2000/svg">
<path fill-rule="evenodd" clip-rule="evenodd" d="M0.743164 0.984375C0.605093 0.984375 0.493164 1.0963 0.493164 1.23437V3.02393C0.493164 3.162 0.605093 3.27393 0.743164 3.27393H8.25659C8.39466 3.27393 8.50659 3.162 8.50659 3.02393V1.23438C8.50659 1.0963 8.39466 0.984375 8.25659 0.984375H0.743164ZM1.65707 2.70154C1.97319 2.70154 2.22945 2.44527 2.22945 2.12915C2.22945 1.81303 1.97319 1.55676 1.65707 1.55676C1.34095 1.55676 1.08468 1.81303 1.08468 2.12915C1.08468 2.44527 1.34095 2.70154 1.65707 2.70154Z" fill="white"/>
<path fill-rule="evenodd" clip-rule="evenodd" d="M0.743164 4.4187C0.605093 4.4187 0.493164 4.53063 0.493164 4.6687V6.45825C0.493164 6.59632 0.605093 6.70825 0.743164 6.70825H8.25659C8.39466 6.70825 8.50659 6.59632 8.50659 6.45825V4.6687C8.50659 4.53063 8.39466 4.4187 8.25659 4.4187H0.743164ZM1.65707 6.13586C1.97319 6.13586 2.22945 5.8796 2.22945 5.56348C2.22945 5.24736 1.97319 4.99109 1.65707 4.99109C1.34095 4.99109 1.08468 5.24736 1.08468 5.56348C1.08468 5.8796 1.34095 6.13586 1.65707 6.13586Z" fill="white"/>
<path fill-rule="evenodd" clip-rule="evenodd" d="M8.25659 10.1426C8.39466 10.1426 8.50659 10.0306 8.50659 9.89258V8.10303C8.50659 7.96496 8.39466 7.85303 8.25659 7.85303H0.743164C0.605093 7.85303 0.493164 7.96496 0.493164 8.10303L0.493164 9.89258C0.493164 10.0306 0.605093 10.1426 0.743164 10.1426L8.25659 10.1426ZM1.65694 9.57019C1.97307 9.57019 2.22933 9.31392 2.22933 8.9978C2.22933 8.68168 1.97307 8.42542 1.65694 8.42542C1.34082 8.42542 1.08456 8.68168 1.08456 8.9978C1.08456 9.31392 1.34082 9.57019 1.65694 9.57019Z" fill="white"/>
</svg>
