<svg width="7" height="7" viewBox="0 0 7 7" fill="none" xmlns="http://www.w3.org/2000/svg">
<path d="M0.424767 5.67855C0.229505 5.87381 0.229505 6.1904 0.424767 6.38566C0.620029 6.58092 0.936612 6.58092 1.13187 6.38566L0.424767 5.67855ZM1.13187 6.38566L4.30918 3.20835L3.60207 2.50124L0.424767 5.67855L1.13187 6.38566Z" fill="white"/>
<path fill-rule="evenodd" clip-rule="evenodd" d="M5.41135 0.314724C5.23983 0.255764 5.05578 0.223755 4.86426 0.223755C3.93524 0.223755 3.18213 0.97687 3.18213 1.90588C3.18213 2.8349 3.93524 3.58801 4.86426 3.58801C5.79327 3.58801 6.54639 2.8349 6.54639 1.90588C6.54639 1.71441 6.5144 1.53041 6.45547 1.35894L5.52069 2.29372C5.23235 2.58206 4.76486 2.58206 4.47652 2.29372C4.18818 2.00538 4.18818 1.53789 4.47652 1.24956L5.41135 0.314724Z" fill="white"/>
</svg>
