<svg width="12" height="12" viewBox="0 0 12 12" fill="none" xmlns="http://www.w3.org/2000/svg">
<path d="M6.78741 2.75869L6.78741 9.24131C6.78741 9.66029 6.4477 10 6.02871 10C5.60972 10 5.27002 9.66029 5.27002 9.24131L5.27002 2.75869C5.27002 2.3397 5.60972 1.99999 6.02871 1.99999C6.4477 1.99999 6.78741 2.3397 6.78741 2.75869Z" fill="white"/>
<path d="M9.25181 5.22319C9.25181 5.41723 9.17765 5.61164 9.02951 5.75959C8.73324 6.05605 8.2528 6.05605 7.95672 5.75959L6.02869 3.83175L4.10085 5.75959C3.80458 6.05605 3.32414 6.05605 3.02787 5.75959C2.7316 5.46351 2.7316 4.98307 3.02787 4.6868L5.49229 2.22237C5.63455 2.08011 5.82745 2.00007 6.02869 2.00007C6.22993 2.00007 6.42283 2.08011 6.56508 2.22237L9.02951 4.6868C9.17784 4.83474 9.25181 5.02916 9.25181 5.22319Z" fill="white"/>
<circle cx="6" cy="6" r="5.5" stroke="white"/>
</svg>
